# xmcd CD database file
#
# Track frame offsets:
#	150
#	26995
#	42032
#	64612
#	80275
#	88540
#	115245
#	139120
#	170207
#	178532
#	192110
#	198150
#	211782
#	227807
#	255362
#	271827
#	284395
#	348662
#
# Disc length: 4705 seconds
#
# Revision: 0
# Processed by: cddbd v1.4PL0 Copyright (c) Steve Scherf et al.
# Submitted via: CDex 1.50beta9
#
DISCID=fc125f12
DTITLE=Rolf Ericson and The American Stars 1956 - with Ernestine Anderson
DYEAR=1996
DGENRE=Jazz
TTITLE0=Forecast
TTITLE1=You Go To My Head
TTITLE2=Vacker Flicka
TTITLE3=A Night in Tunisia
TTITLE4=Introduction
TTITLE5=Dig
TTITLE6=I'll Remember April
TTITLE7=Oh, Lady Be Good
TTITLE8=Looking For A Boy
TTITLE9=Lover Man
TTITLE10=A Foggy Day
TTITLE11=I Got It Bad
TTITLE12=Love For Sale
TTITLE13=Half Nelson
TTITLE14=These Foolish Thing
TTITLE15=Stella By Starlight
TTITLE16=A Night in Tunisia
TTITLE17=The Theme
EXTD=YEAR: 1996
EXTT0=
EXTT1=
EXTT2=
EXTT3=
EXTT4=
EXTT5=
EXTT6=
EXTT7=
EXTT8=
EXTT9=
EXTT10=
EXTT11=
EXTT12=
EXTT13=
EXTT14=
EXTT15=
EXTT16=
EXTT17=
PLAYORDER=
